<svg aria-hidden="true" style="position: absolute; width: 0; height: 0; overflow: hidden;" version="1.1" xmlns="http://www.w3.org/2000/svg" xmlns:xlink="http://www.w3.org/1999/xlink">
<defs>
<symbol id="icon-star-full" viewBox="0 0 32 32">
<title>star-full</title>
<path d="M16.756 1.245l4.070 9.634 10.421 0.895c0.723 0.062 1.017 0.964 0.468 1.439l-7.904 6.848 2.369 10.188c0.164 0.708-0.603 1.265-1.224 0.889l-8.956-5.401-8.956 5.401c-0.623 0.375-1.388-0.182-1.224-0.889l2.369-10.188-7.906-6.85c-0.549-0.475-0.256-1.377 0.468-1.439l10.421-0.895 4.070-9.632c0.283-0.67 1.23-0.67 1.513 0z"></path>
</symbol>
<symbol id="icon-star" viewBox="0 0 32 32">
<title>star</title>
<path d="M31.956 12.269c-0.105-0.322-0.381-0.552-0.716-0.604l-9.983-1.419-4.492-9.031c-0.151-0.302-0.46-0.493-0.795-0.493v0c-0.335 0-0.644 0.19-0.795 0.499l-4.433 9.057-9.983 1.484c-0.335 0.053-0.611 0.282-0.716 0.604s-0.013 0.677 0.23 0.906l7.244 7.021-1.675 9.944c-0.059 0.335 0.079 0.67 0.355 0.867 0.151 0.112 0.335 0.171 0.519 0.171 0.144 0 0.282-0.033 0.414-0.105l8.913-4.722 8.939 4.67c0.131 0.066 0.269 0.099 0.407 0.099v0c0.486 0 0.887-0.401 0.887-0.887 0-0.072-0.007-0.138-0.026-0.204l-1.727-9.885 7.198-7.060c0.256-0.236 0.342-0.591 0.236-0.913zM22.958 19.304c-0.21 0.204-0.302 0.499-0.25 0.788l1.504 8.624-7.763-4.052c-0.256-0.138-0.565-0.131-0.828 0l-7.737 4.098 1.451-8.637c0.046-0.289-0.046-0.578-0.256-0.782l-6.279-6.095 8.663-1.287c0.289-0.046 0.539-0.223 0.663-0.486l3.849-7.862 3.901 7.842c0.131 0.263 0.381 0.44 0.67 0.486l8.67 1.235-6.259 6.128z"></path>
</symbol>
</defs>
</svg>
